<svg width="500" height="142" viewBox="0 0 500 142" fill="none" xmlns="http://www.w3.org/2000/svg">
<path d="M211.872 116.358L167.472 59.4091L173.123 57.8133V116.358H163.032V48.4382H171.609L214.495 103.392H210.358V48.4382H220.449V116.358H211.872Z" fill="#10B981"/>
<path d="M145.924 116.358H135.833V48.4382H145.924V116.358Z" fill="#10B981"/>
<path d="M83.9566 116.358L58.7965 35.6388L55.702 25.7982H68.8875L94.5857 109.709L88.6657 108.379L111 25.7982H124.589L99.6985 116.358H83.9566ZM24.891 116.358L0 25.7982H13.5891L35.9237 108.379L30.0037 109.709L55.702 25.7982H68.8875L65.7929 35.6388L40.6328 116.358H24.891Z" fill="#6AFFCD"/>
<path d="M428.06 117.355C421.131 117.355 415.043 115.859 409.796 112.867C404.616 109.809 400.579 105.653 397.687 100.4C394.794 95.0811 393.347 89.097 393.347 82.448C393.347 77.3947 394.222 72.7404 395.971 68.485C397.72 64.2296 400.142 60.5394 403.237 57.4144C406.398 54.2893 410.065 51.8624 414.236 50.1337C418.474 48.4049 423.082 47.5406 428.06 47.5406C435.864 47.5406 442.255 49.1363 447.233 52.3279C452.211 55.4529 456.281 59.675 459.443 64.9943L449.554 67.8866C446.459 63.6977 443.129 60.8719 439.564 59.4091C436.066 57.8798 432.231 57.1152 428.06 57.1152C423.418 57.1152 419.248 58.2122 415.548 60.4064C411.915 62.6006 409.022 65.5927 406.869 69.3826C404.717 73.1726 403.64 77.5277 403.64 82.448C403.64 87.3017 404.717 91.6569 406.869 95.5133C409.022 99.3032 411.915 102.295 415.548 104.489C419.248 106.684 423.418 107.781 428.06 107.781C432.5 107.781 436.537 106.817 440.169 104.888C443.869 102.894 446.796 100.201 448.948 96.8099C451.101 93.4189 452.178 89.5624 452.178 85.2405L453.691 91.0252H427.455V81.6501H461.159C461.36 82.315 461.495 83.0796 461.562 83.944C461.697 84.8084 461.764 85.6395 461.764 86.4374C461.764 90.6928 460.923 94.6822 459.241 98.4056C457.559 102.129 455.171 105.42 452.077 108.279C449.049 111.139 445.484 113.366 441.38 114.962C437.344 116.557 432.904 117.355 428.06 117.355Z" fill="#10B981"/>
<path d="M351.096 86.9361V77.5609H378.846V86.9361H351.096ZM350.793 57.8133L353.114 54.6218V108.479L350.288 106.883H384.799V116.358H343.023V48.4382H384.799V57.8133H350.793Z" fill="#10B981"/>
<path d="M247.67 17.5298C248.989 17.3952 250.321 17.6202 251.517 18.1871L319.926 50.5818C321.232 51.2118 322.318 52.2192 323.036 53.4681C323.753 54.7164 324.066 56.1514 323.945 57.5818C323.823 59.013 323.264 60.3783 322.346 61.4912C321.427 62.6024 320.189 63.4149 318.796 63.8199L318.642 63.8571L295.109 69.4411L317.039 97.6971C317.911 98.8214 318.297 100.247 318.11 101.652C317.922 103.055 317.175 104.327 316.039 105.189L309.625 110.05C309.061 110.478 308.415 110.791 307.729 110.973C307.043 111.155 306.327 111.207 305.622 111.116C304.917 111.024 304.233 110.789 303.617 110.437C303.003 110.085 302.46 109.617 302.029 109.059L280.1 80.7951L268.554 101.819L268.478 101.957C267.762 103.143 266.711 104.097 265.453 104.698C264.192 105.299 262.778 105.524 261.391 105.339L261.041 105.293C259.602 105.044 258.278 104.359 257.243 103.34C256.209 102.322 255.516 101.014 255.258 99.5937L241.343 25.8982C241.099 24.61 241.225 23.28 241.698 22.0559C242.173 20.8306 242.98 19.7533 244.034 18.9548C245.087 18.1564 246.349 17.6651 247.67 17.5298ZM273.241 37.5008C263.574 32.529 252.498 41.1959 255.185 51.6339L257.233 59.5558C259.365 67.8336 269.094 71.5876 276.336 66.9268L282.271 63.1082C290.359 57.9007 289.777 46.0091 281.216 41.603L273.241 37.5008Z" fill="#6AFFCD"/>
<path d="M488.251 111.283C488.251 114.086 485.992 116.358 483.205 116.358C480.419 116.358 478.16 114.086 478.16 111.283V53.5134C478.16 50.7104 480.419 48.4382 483.205 48.4382C485.992 48.4382 488.251 50.7104 488.251 53.5134V111.283Z" fill="#6AFFCD"/>
<path d="M488.204 9.65676L486.023 2.11675C485.205 -0.705584 481.158 -0.705584 480.341 2.11675L478.162 9.65676C478.024 10.1337 477.766 10.5681 477.411 10.9189C477.056 11.2696 476.617 11.5253 476.134 11.6616L468.505 13.8148C465.65 14.6226 465.65 18.6225 468.505 19.4303L476.134 21.5836C476.617 21.7199 477.056 21.9755 477.411 22.3263C477.766 22.677 478.024 23.1114 478.162 23.5884L480.341 31.1284C481.158 33.9507 485.205 33.9507 486.023 31.1284L488.201 23.5884C488.339 23.1114 488.598 22.677 488.953 22.3263C489.307 21.9755 489.747 21.7199 490.23 21.5836L497.858 19.4303C500.714 18.6225 500.714 14.6226 497.858 13.8148L490.23 11.6616C489.747 11.5253 489.307 11.2696 488.953 10.9189C488.598 10.5681 488.342 10.1337 488.204 9.65676Z" fill="#6AFFCD"/>
<path d="M0 133.617H500V142H0V133.617Z" fill="#10B981"/>
</svg>
